<?xml version="1.0" encoding="UTF-8"?>
<svg id="Capa_1" xmlns="http://www.w3.org/2000/svg" version="1.1" viewBox="0 0 800 600">
  <!-- Generator: Adobe Illustrator 30.1.0, SVG Export Plug-In . SVG Version: 2.1.1 Build 136)  -->
  <defs>
    <style>
      .st0 {
        fill: #02caf9;
      }

      .st1 {
        fill: #100723;
      }

      .st2 {
        fill: #100625;
      }
    </style>
  </defs>
  <g>
    <path class="st1" d="M0,350.73h16.36v90.13H0s0-90.13,0-90.13Z"/>
    <path class="st1" d="M29.38,350.73h14.35l37.55,57.92v-57.92h16.36v90.13h-14.35l-37.72-58.08v58.08h-16.36v-90.13h.17Z"/>
    <path class="st1" d="M107.99,350.73h16.36l21.36,77.45,21.36-77.45h16.36l-24.54,90.13h-26.37l-24.7-90.13h.17Z"/>
    <path class="st1" d="M193.78,350.73h60.76v15.36h-44.4v22.03h39.89v15.36h-39.89v21.87h44.4v15.36h-60.76v-90.13.17Z"/>
    <path class="st1" d="M264.72,350.73h39.89c4.34,0,8.01.5,11.52,1.67,3.34,1.17,6.34,2.67,8.68,4.84,2.5,2,4.34,4.51,5.51,7.51,1.34,3,2,6.18,2,9.85s-.5,6.18-1.5,8.51c-1,2.5-2.17,4.51-3.67,6.34s-3.17,3.51-4.84,4.84c-1.67,1.34-3.34,2.67-4.84,3.84s-2.67,2.34-3.67,3.34c-1,1.17-1.5,2.34-1.5,3.51s.67,3.51,2.17,5.84l18.36,30.21h-18.53l-14.35-23.87c-2.84-4.67-4.34-8.85-4.34-12.52s.5-4.67,1.5-6.51c1-2,2.34-3.84,3.84-5.34,1.5-1.67,3.17-3.17,4.84-4.67,1.67-1.5,3.34-3,4.84-4.34,1.5-1.5,2.84-3,3.84-4.51s1.5-3.17,1.5-5.01-1-4.51-3-5.84-4.67-2-8.35-2h-23.53v74.78h-16.36v-90.47Z"/>
    <path class="st1" d="M343.83,350.73h41.73c8.01,0,14.19,2,18.53,5.84,4.51,3.84,6.68,9.01,6.68,15.69s-.67,7.34-2.17,9.85c-1.5,2.5-3,4.67-4.84,6.34-1.67,1.67-3.34,3-4.84,4.17s-2.17,2.34-2.17,3.51.67,2.34,2.17,3.51c1.5,1.17,3,2.5,4.84,4.17,1.67,1.67,3.34,3.84,4.84,6.34,1.5,2.5,2.17,5.84,2.17,9.85,0,6.68-2.17,11.85-6.68,15.69-4.51,3.84-10.68,5.84-18.69,5.84h-41.73v-90.13l.17-.67ZM385.56,425.67c3,0,5.17-.5,6.84-1.67s2.34-2.67,2.34-4.51-.83-4.01-2.34-5.51c-1.5-1.67-3.34-3.34-5.17-5.01s-3.67-3.51-5.17-5.51c-1.67-2-2.34-4.51-2.34-7.51s.83-5.34,2.34-7.51c1.5-2,3.34-3.84,5.17-5.51s3.67-3.34,5.17-5.01c1.5-1.67,2.34-3.51,2.34-5.51s-.83-3.51-2.5-4.51c-1.67-1.17-3.84-1.67-6.68-1.67h-25.37v59.42h25.37Z"/>
    <path class="st1" d="M421.28,350.73h16.36v74.78h42.56v15.36h-59.09v-90.13h.17Z"/>
    <path class="st1" d="M526.6,441.69c-6.51,0-12.52-1.17-18.03-3.51-5.51-2.34-10.18-5.51-14.02-9.51-4.01-4.01-7.01-8.85-9.18-14.52-2.17-5.67-3.34-11.85-3.34-18.53s1-12.85,3.34-18.36c2.17-5.51,5.17-10.35,9.18-14.35,4.01-4.01,8.68-7.18,14.19-9.35,5.51-2.17,11.52-3.34,18.03-3.34s12.52,1.17,17.86,3.34c5.51,2.17,10.18,5.34,14.02,9.35,4.01,4.01,7.01,8.85,9.18,14.35s3.34,11.68,3.34,18.36-1.17,13.02-3.34,18.53c-2.17,5.67-5.34,10.52-9.18,14.52-4.01,4.01-8.68,7.18-14.02,9.51-5.51,2.34-11.35,3.51-17.86,3.51h-.17ZM526.6,426.17c4.17,0,8.01-.83,11.35-2.34,3.51-1.5,6.34-3.67,8.85-6.34s4.34-6.01,5.84-9.68c1.34-3.84,2-8.01,2-12.52s-.67-8.51-2-12.18c-1.34-3.67-3.17-6.84-5.67-9.51-2.5-2.67-5.51-4.67-8.85-6.01-3.51-1.5-7.34-2.17-11.52-2.17s-8.18.67-11.52,2.17c-3.51,1.5-6.51,3.51-8.85,6.01-2.5,2.67-4.34,5.84-5.67,9.51s-2,7.68-2,12.18.67,8.85,2,12.52c1.34,3.84,3.34,7.01,5.84,9.68s5.51,4.84,8.85,6.34c3.51,1.5,7.34,2.34,11.52,2.34h-.17Z"/>
    <path class="st1" d="M624.24,441.03c-7.18,0-13.35-1.17-18.86-3.67s-10.18-5.84-14.02-10.01-6.68-9.01-8.68-14.52c-2-5.51-3-11.18-3-17.02s1-11.68,3-17.02c2-5.51,4.84-10.18,8.68-14.35,3.84-4.17,8.51-7.51,14.02-9.85,5.51-2.5,11.85-3.67,18.86-3.67h24.04v15.36h-24.04c-4.34,0-8.35.83-11.85,2.34-3.51,1.67-6.51,3.67-8.85,6.51-2.34,2.67-4.17,5.84-5.51,9.35s-2,7.34-2,11.35.67,7.84,2,11.35c1.34,3.67,3.17,6.68,5.51,9.51,2.34,2.67,5.34,4.84,8.85,6.51,3.51,1.67,7.51,2.5,11.85,2.5h24.04v15.36h-24.04Z"/>
    <path class="st1" d="M674.98,441.03h-16.36v-90.13h16.36v90.13ZM711.2,350.73h18.53l-34.88,45.07,34.88,45.07h-18.53l-34.88-45.07,34.88-45.07Z"/>
    <path class="st1" d="M737.41,425.67h34.88c3.51,0,6.18-.83,8.18-2.67,2-1.84,3-4.17,3-7.34s-.83-5.01-2.34-6.84-3.67-3-6.51-3.67l-16.86-3.51c-6.84-1.5-12.18-4.51-15.86-9.01-3.84-4.51-5.67-10.01-5.67-16.69s.67-7.34,2-10.35c1.34-3.17,3.17-5.67,5.51-8.01,2.34-2.17,5.34-3.84,8.68-5.01,3.51-1.17,7.18-1.84,11.35-1.84h34.88v15.36h-34.88c-3.51,0-6.18.83-8.18,2.67-2,1.84-3,4.17-3,7.18s.83,5.01,2.34,6.84c1.67,1.84,3.84,3,6.68,3.67l16.86,3.67c6.84,1.5,12.02,4.34,15.86,8.85s5.67,10.01,5.67,16.69-2.5,14.02-7.34,18.53c-5.01,4.51-11.68,6.84-20.2,6.84h-34.88v-15.36h-.17Z"/>
  </g>
  <g>
    <path class="st2" d="M451.73,190.56l-45.4-30.38c-3.84-2.5-8.85-2.5-12.69,0l-45.4,30.38c-3.17,2.17-5.01,5.67-5.01,9.51v64.09c0,3.84,1.84,7.34,5.01,9.51l45.4,30.38c3.84,2.5,8.85,2.5,12.69,0l45.4-30.38c3.17-2.17,5.01-5.67,5.01-9.51v-64.09c0-3.84-1.84-7.34-5.01-9.51Z"/>
    <g>
      <path class="st0" d="M369.45,203.92h10.18v56.25h-10.18v-56.25Z"/>
      <path class="st0" d="M388.81,203.92h26.04c5.01,0,8.85,1.17,11.68,3.67,2.84,2.34,4.17,5.67,4.17,9.85s-.5,4.51-1.34,6.18c-.83,1.5-1.84,2.84-3,3.84-1,1-2,1.84-3,2.67-.83.67-1.34,1.5-1.34,2.17s.5,1.5,1.34,2.17,1.84,1.5,3,2.67c1,1,2,2.34,3,3.84.83,1.5,1.34,3.67,1.34,6.18,0,4.17-1.34,7.34-4.17,9.85-2.84,2.34-6.68,3.67-11.68,3.67h-26.04v-56.75ZM414.85,250.65c1.84,0,3.17-.33,4.17-1s1.5-1.67,1.5-2.84-.5-2.5-1.5-3.51-2-2-3.17-3.17c-1.17-1-2.34-2.17-3.17-3.51-1-1.34-1.5-2.84-1.5-4.67s.5-3.34,1.5-4.67,2-2.5,3.17-3.51c1.17-1,2.17-2,3.17-3.17,1-1,1.5-2.17,1.5-3.34s-.5-2.17-1.5-2.84c-1-.67-2.34-1-4.17-1h-15.86v37.05h15.86v.17Z"/>
    </g>
  </g>
</svg>